<svg xmlns="http://www.w3.org/2000/svg" width="145.67" height="145.668" viewBox="0 0 145.67 145.668">
  <g id="_657760_circles_line_neon_social_wordpress_icon" data-name="657760_circles_line_neon_social_wordpress_icon" transform="translate(-3.705 -3.792)">
    <path id="Path_36846" data-name="Path 36846" d="M76.541,149.46A72.834,72.834,0,1,0,3.705,76.626,72.917,72.917,0,0,0,76.541,149.46Zm0-142.5A69.666,69.666,0,1,1,6.873,76.626,69.745,69.745,0,0,1,76.541,6.96Z" transform="translate(0 0)" fill="#fff"/>
    <path id="Path_36847" data-name="Path 36847" d="M23.947,40.68c.578.068.65.074,1.229.125.412.035,1.092.1,2.438.217,2.682,7.343,20.15,55.187,21.151,57.955a5.385,5.385,0,0,0,5.032,3.572A5.067,5.067,0,0,0,58.6,98.784C59.464,96.136,65.707,78,69.185,67.915c5.295,14.5,10.782,29.545,11.327,31.062a5.388,5.388,0,0,0,5.033,3.572,5.063,5.063,0,0,0,4.8-3.766c.554-1.7,2.3-6.679,4.509-12.98,2.826-8.062,6.7-19.1,10.185-29.305,3.393-10.231,3.016-20.4-.958-25.909a9.1,9.1,0,0,0-10.763-3.46,8.691,8.691,0,0,0-5.12,5.55c-.84,2.6-.962,6.9,3.229,12.655,6.361,8.729,2.681,18.872,2.609,19.074L89.4,79.8,76.339,40.959c1.248-.1,2.647-.217,3.02-.272a3.324,3.324,0,0,0,2.807-3.767A3.119,3.119,0,0,0,78.8,34.105l-.653.03c-3.97.266-7.549.4-10.652.4-2.159,0-5.741-.07-10.537-.407l-.239-.016c-.112-.006-.231-.01-.353-.01a3.181,3.181,0,0,0-3.378,2.511,3.652,3.652,0,0,0,.6,2.836A3.037,3.037,0,0,0,55.7,40.678c.578.068.648.074,1.233.125.413.035,1.093.1,2.432.217l6.05,16.571L57.781,80.248,44.588,40.959c1.25-.1,2.647-.215,3.021-.272a3.329,3.329,0,0,0,2.806-3.766c-.246-1.861-1.619-2.909-3.68-2.807l-.342.025c-3.976.266-7.558.4-10.651.4-2.123,0-5.664-.07-10.48-.4l-.295-.021c-.116-.006-.236-.011-.363-.011a3.172,3.172,0,0,0-3.367,2.509,3.648,3.648,0,0,0,.6,2.837A3.025,3.025,0,0,0,23.947,40.68Zm.659-3.406.436.024c4.908.339,8.528.412,10.7.412,3.161,0,6.817-.138,10.862-.409l.453-.024a1.707,1.707,0,0,1,.22.013.1.1,0,0,0,0,.051c.013.1.024.177-.139.217-.385.059-3.048.269-4.815.4a1.585,1.585,0,0,0-1.385,2.085L56.278,85.726a1.583,1.583,0,0,0,3,0l9.312-27.647a1.578,1.578,0,0,0-.013-1.049L62,39a1.583,1.583,0,0,0-1.342-1.033c-2.033-.189-2.942-.268-3.45-.311-.539-.048-.6-.052-1.065-.071a2.046,2.046,0,0,0-.138-.26,1,1,0,0,1,.361-.043l.371.019c4.887.344,8.549.415,10.774.415,3.159,0,6.809-.138,10.849-.409l.44-.022a1.606,1.606,0,0,1,.206.011c.01.078.022.177.022.177a.315.315,0,0,1-.141.09c-.383.059-3.047.271-4.815.4a1.585,1.585,0,0,0-1.385,2.085l15.29,45.485A1.63,1.63,0,0,0,89.5,86.612a1.58,1.58,0,0,0,1.491-1.126l6.041-20.052c.181-.478,4.342-11.815-3.046-21.958-2.7-3.7-3.656-7.1-2.776-9.813A5.646,5.646,0,0,1,94.3,30.151a5.934,5.934,0,0,1,7.213,2.3c2.787,3.859,4.027,12.484.526,23.043-3.477,10.176-7.348,21.21-10.172,29.267-2.3,6.567-3.965,11.31-4.531,13.048-.334,1.031-.955,1.578-1.79,1.578a2.243,2.243,0,0,1-2.053-1.48c-.6-1.663-7.147-19.611-12.862-35.265A1.586,1.586,0,0,0,69.139,61.6h-.014a1.585,1.585,0,0,0-1.484,1.068C60.21,84.224,56.265,95.72,55.586,97.811c-.336,1.033-.957,1.578-1.792,1.578a2.238,2.238,0,0,1-2.052-1.481c-1.085-3-21.5-58.907-21.5-58.907A1.586,1.586,0,0,0,28.9,37.966c-2.042-.19-2.95-.268-3.458-.312-.534-.046-.6-.052-1.057-.068a1.974,1.974,0,0,0-.138-.265A.773.773,0,0,1,24.606,37.274Z" transform="translate(10.203 13.312)" fill="#fff"/>
  </g>
</svg>
